<svg width="734" height="640" viewBox="0 0 734 640" fill="none" xmlns="http://www.w3.org/2000/svg" xmlns:xlink="http://www.w3.org/1999/xlink">
<rect width="734" height="640" fill="url(#pattern0)"/>
<path d="M228 504.37L448.8 511.906L518 499V519.442L449.5 538L228 527.638V504.37Z" fill="#3595F6" fill-opacity="0.75"/>
<path d="M229 503V478L449.3 481.3L519 478V498L449.7 511L229 503Z" fill="#3595F6" fill-opacity="0.75"/>
<path d="M229 477V452H450H519V475L451 482L229 477Z" fill="#3595F6" fill-opacity="0.75"/>
<path d="M229 453V429.481L450.3 426L518 432.303V453H450" fill="#3595F6" fill-opacity="0.75"/>
<path d="M229 430.028V404.269L450.5 401L519 411.898V433L450 426.362L229 430.028Z" fill="#3595F6" fill-opacity="0.75"/>
<path d="M228 404.131V381.661L449 370L520 391.806V412L449 400.339L228 404.131Z" fill="#3595F6" fill-opacity="0.75"/>
<path d="M228 382.373V358.54L450.2 343L520 370.266V390L449.7 369.312L228 382.373Z" fill="#3595F6" fill-opacity="0.75"/>
<path d="M228 359.272V334.839L450.5 315L520 350.77V371L448 342.951L228 359.272Z" fill="#3595F6" fill-opacity="0.75"/>
<path d="M228 333.181V309.437L451 285L520 328.531V350L450.7 312.405L228 333.181Z" fill="#3595F6" fill-opacity="0.75"/>
<path d="M228 308.715V285.619L450.5 258L520 307.079V327L449.7 286.293L228 308.715Z" fill="#3595F6" fill-opacity="0.75"/>
<path d="M227 285.557V262.165L449.3 230L520 287.799V307L450 257.584L227 285.557Z" fill="#3595F6" fill-opacity="0.75"/>
<path d="M228 260.918V237.765L449.2 204L519 265.741V286L450.3 229.758L228 260.918Z" fill="#3595F6" fill-opacity="0.75"/>
<path d="M228 237.923V213.747L450.3 177L519 244.982V265L450 203.11L228 237.923Z" fill="#3595F6" fill-opacity="0.75"/>
<path d="M228 213.525V189.68L448.8 148L519 223.349V245L450 175.088L228 213.525Z" fill="#3595F6" fill-opacity="0.75"/>
<path d="M229 190.648V166.111L449 119L519 202.426V225L448.3 147.169L229 190.648Z" fill="#3595F6" fill-opacity="0.75"/>
<path d="M228 165.652V141.739L447.8 92L519 180.287V202L449.3 119.452L228 165.652Z" fill="#3595F6" fill-opacity="0.75"/>
<path d="M228 141.532V116.528L450 62L519 159.804V180L449.7 91.8126L228 141.532Z" fill="#3595F6" fill-opacity="0.75"/>
<defs>
<pattern id="pattern0" patternContentUnits="objectBoundingBox" width="1" height="1">
<use xlink:href="#image0_1_86" transform="translate(-0.00408719) scale(0.0013624 0.0015625)"/>
</pattern>
<image id="image0_1_86" width="740" height="640" xlink:href="home.png"/>
</defs>
</svg>
